<?xml version="1.0" encoding="iso-8859-1"?>
<!-- Uploaded to: SVG Repo, www.svgrepo.com, Generator: SVG Repo Mixer Tools -->
<svg fill="#000000" height="800px" width="800px" version="1.1" id="Layer_1" xmlns="http://www.w3.org/2000/svg" xmlns:xlink="http://www.w3.org/1999/xlink" 
	 viewBox="0 0 512.001 512.001" xml:space="preserve">
<g>
	<g>
		<path d="M466.382,205.264c0,0-0.4-0.688-0.428-0.733c-32.133-54.409-78.01-97.35-110.865-123.808l-0.034-0.029
			c-0.06-0.05-0.119-0.099-0.178-0.147c-17.311-13.93-32.717-24.748-44.216-32.321c3.221-6.121,4.427-13.035,3.438-19.931
			c-0.078-0.54-0.169-1.08-0.273-1.621c-0.117-0.605-0.254-1.204-0.404-1.797C309.793,10.446,296.385,0,281.507,0
			c-10.974,0-21.186,5.424-27.321,14.509c-2.877,4.262-5.727,8.511-8.553,12.75c-0.097,0.145-0.193,0.29-0.29,0.435
			c-2.834,4.253-5.643,8.492-8.425,12.72c-0.023,0.034-0.046,0.068-0.067,0.102c-26.495,40.25-51.933,81.239-76.277,122.824
			c-22.243,37.996-43.594,76.515-64.004,115.526c-16.132,30.833-31.681,61.974-46.547,93.438
			c-10.108,21.395-19.912,42.937-29.264,64.674c-4.171,9.692-8.291,19.414-12.157,29.232c-0.131,0.332-0.262,0.664-0.391,0.997
			c-5.344,13.864-0.708,29.669,11.277,38.433c2.336,1.708,4.896,3.105,7.609,4.149c3.805,1.467,7.79,2.211,11.846,2.212
			c13.52,0,25.873-8.478,30.734-21.089c0.656-1.697,57.285-146.722,172.48-335.7c0.741-1.216,1.49-2.429,2.234-3.645
			c11.118,6.416,22.071,13.01,32.729,19.699l-12.407,16.966c-3.932,5.376-5.535,11.961-4.513,18.544
			c1.023,6.582,4.546,12.372,9.921,16.303c4.302,3.147,9.388,4.81,14.707,4.81c7.933,0,15.462-3.82,20.141-10.218l13.71-18.748
			c22.001,15.531,42.56,31.591,61.304,47.887l-33.466,45.763c-3.932,5.376-5.535,11.961-4.513,18.543
			c1.022,6.582,4.544,12.372,9.921,16.303c4.302,3.147,9.388,4.81,14.707,4.81c7.934,0,15.463-3.82,20.142-10.218l29.813-40.766
			c53.81,55.057,69.861,94.26,70.023,94.666c1.369,3.454,4.701,5.673,8.346,5.673c0.362,0,0.726-0.022,1.092-0.066
			c4.062-0.496,7.276-3.674,7.818-7.73C511.418,317.162,498.801,260.453,466.382,205.264z M52.917,484.44
			c-2.212,5.737-7.827,9.593-13.974,9.593c-1.835-0.001-3.645-0.34-5.384-1.011c-1.24-0.477-2.406-1.113-3.465-1.886
			c-5.443-3.98-7.547-11.163-5.117-17.468c0.66-1.713,56.99-146.346,171.783-336.004l24.872,16.747
			C109.05,340.663,53.572,482.746,52.917,484.44z M230.98,139.046l-24.856-16.737c20.362-33.152,41.516-65.997,62.953-97.745
			c2.788-4.13,7.436-6.597,12.43-6.597c8.214,0,15.595,7.294,14.879,15.661c-0.404,4.711-3.15,8.849-5.798,12.766
			C270.006,76.813,250.183,107.738,230.98,139.046z M253.827,136.262c0.442-0.713,0.884-1.424,1.327-2.137
			c3.186-5.119,6.39-10.237,9.619-15.347c0.24-0.379,0.476-0.759,0.716-1.138c3.693-5.837,7.412-11.663,11.151-17.474
			c0.363-0.565,0.728-1.127,1.092-1.693c3.611-5.602,7.239-11.192,10.887-16.758c0.132-0.201,0.262-0.402,0.394-0.604
			c3.919-5.978,7.857-11.933,11.809-17.856c9.64,6.351,22.131,15.068,36.217,26.073l-49.282,67.391
			C276.716,149.772,265.357,142.923,253.827,136.262z M329.297,184.404c4.042-5.528,8.085-11.055,12.127-16.584
			c2.625-3.591,5.251-7.181,7.878-10.772c0.94-1.285,1.939-2.721,3.072-3.954c2.088-2.27,4.629-3.844,8.078-2.475
			c3.188,1.266,5.073,5.147,4.092,8.436c-0.471,1.579-1.482,2.933-2.487,4.239c-2.808,3.646-5.757,7.266-7.581,11.491
			c-3.127,7.242-2.527,15.981,1.561,22.727s11.557,11.323,19.423,11.901c7.867,0.579,15.926-2.854,20.957-8.928
			c2.03-2.452,3.792-5.45,6.789-6.523c3.1-1.11,6.932,0.555,8.21,3.59c0.979,2.324,0.508,5.055-0.653,7.292
			c-1.255,2.421-20.732,26.873-20.126,27.398C371.819,215.955,351.247,199.912,329.297,184.404z M372.273,311.404
			c-1.327,1.816-3.383,2.857-5.639,2.857c-1.479,0-2.897-0.466-4.101-1.345c-1.502-1.1-2.487-2.718-2.772-4.557
			c-0.286-1.839,0.162-3.68,1.261-5.183c6.473-8.85,12.946-17.702,19.417-26.552c11.093-15.169,22.184-30.336,33.277-45.505
			c8.292-11.339,20.323-23.534,15.001-38.76c-2.937-8.402-10.694-14.924-19.475-16.375c-8.782-1.451-18.224,2.229-23.708,9.24
			c-1.547,1.978-2.882,4.269-5.086,5.471c-2.283,1.247-5.293,1.009-7.352-0.58s-3.053-4.44-2.428-6.964
			c0.393-1.583,1.339-2.963,2.269-4.305c2.614-3.772,6.154-7.687,8.008-11.868c1.835-4.138,2.277-9.259,1.588-13.695
			c-1.848-11.9-12.451-21.113-24.629-21.113c-6.941,0-13.573,2.924-18.258,7.941c-0.669,0.716-1.298,1.476-1.884,2.276
			c0,0-28.386,38.817-28.387,38.819l-18.909,25.856c-1.327,1.816-3.383,2.857-5.639,2.857c-1.479,0-2.897-0.466-4.101-1.345
			c-1.502-1.1-2.487-2.718-2.773-4.557c-0.285-1.84,0.162-3.68,1.261-5.183l18.076-24.718l53.746-73.494
			c49.764,41.425,79.513,80.581,96.4,107.996L372.273,311.404z M427.344,266.536l21.137-28.905l8.745-11.957
			c20.312,38.082,30.617,76.739,30.786,115.389C476.498,322.875,457.426,296.981,427.344,266.536z"/>
	</g>
</g>
</svg>